<svg width="41" height="40" viewBox="0 0 41 40" fill="none" xmlns="http://www.w3.org/2000/svg">
<rect x="10" y="11" width="21" height="17" fill="#2495FB"/>
<path fill-rule="evenodd" clip-rule="evenodd" d="M6.3335 6C5.80306 6 5.29436 6.21071 4.91928 6.58579C4.54421 6.96086 4.3335 7.46957 4.3335 8C4.3335 8.53043 4.54421 9.03914 4.91928 9.41421C5.29436 9.78929 5.80306 10 6.3335 10V26C6.3335 27.0609 6.75492 28.0783 7.50507 28.8284C8.25521 29.5786 9.27263 30 10.3335 30H15.5055L12.9195 32.586C12.7285 32.7705 12.5761 32.9912 12.4713 33.2352C12.3665 33.4792 12.3113 33.7416 12.309 34.0072C12.3067 34.2728 12.3573 34.5361 12.4579 34.7819C12.5584 35.0277 12.7069 35.251 12.8947 35.4388C13.0825 35.6266 13.3058 35.7751 13.5516 35.8756C13.7974 35.9762 14.0607 36.0268 14.3263 36.0245C14.5919 36.0222 14.8543 35.967 15.0983 35.8622C15.3423 35.7574 15.563 35.605 15.7475 35.414L20.3335 30.828L24.9195 35.414C25.2967 35.7783 25.8019 35.9799 26.3263 35.9753C26.8507 35.9708 27.3523 35.7605 27.7231 35.3896C28.0939 35.0188 28.3043 34.5172 28.3088 33.9928C28.3134 33.4684 28.1118 32.9632 27.7475 32.586L25.1615 30H30.3335C31.3944 30 32.4118 29.5786 33.1619 28.8284C33.9121 28.0783 34.3335 27.0609 34.3335 26V10C34.8639 10 35.3726 9.78929 35.7477 9.41421C36.1228 9.03914 36.3335 8.53043 36.3335 8C36.3335 7.46957 36.1228 6.96086 35.7477 6.58579C35.3726 6.21071 34.8639 6 34.3335 6H6.3335ZM29.7475 15.414C30.1118 15.0368 30.3134 14.5316 30.3088 14.0072C30.3043 13.4828 30.0939 12.9812 29.7231 12.6104C29.3523 12.2395 28.8507 12.0292 28.3263 12.0247C27.8019 12.0201 27.2967 12.2217 26.9195 12.586L20.3335 19.172L17.7475 16.586C17.3724 16.2111 16.8638 16.0004 16.3335 16.0004C15.8032 16.0004 15.2946 16.2111 14.9195 16.586L10.9195 20.586C10.7285 20.7705 10.5761 20.9912 10.4713 21.2352C10.3665 21.4792 10.3113 21.7416 10.309 22.0072C10.3067 22.2728 10.3573 22.5361 10.4579 22.7819C10.5584 23.0277 10.7069 23.251 10.8947 23.4388C11.0825 23.6266 11.3058 23.7751 11.5516 23.8756C11.7974 23.9762 12.0607 24.0268 12.3263 24.0245C12.5919 24.0222 12.8543 23.967 13.0983 23.8622C13.3423 23.7574 13.563 23.605 13.7475 23.414L16.3335 20.828L18.9195 23.414C19.2946 23.7889 19.8032 23.9996 20.3335 23.9996C20.8638 23.9996 21.3724 23.7889 21.7475 23.414L29.7475 15.414Z" fill="#91CAFD"/>
</svg>
