<svg width="41" height="40" viewBox="0 0 41 40" fill="none" xmlns="http://www.w3.org/2000/svg">
<path opacity="0.5" d="M19.2433 5.03801C19.8767 3.89967 20.1933 3.33301 20.6667 3.33301C21.14 3.33301 21.4567 3.89967 22.09 5.03801L22.2533 5.33134C22.4333 5.65467 22.5233 5.81467 22.6633 5.92134C22.805 6.02801 22.98 6.06801 23.33 6.14634L23.6467 6.21967C24.8767 6.49801 25.4917 6.63634 25.6383 7.10634C25.785 7.57801 25.365 8.06801 24.5267 9.04801L24.31 9.30134C24.0717 9.57967 23.9517 9.71801 23.8983 9.89134C23.845 10.0647 23.8633 10.2497 23.8983 10.6213L23.9317 10.9597C24.0583 12.268 24.1217 12.923 23.74 13.213C23.3567 13.5047 22.78 13.238 21.6283 12.708L21.3317 12.5713C21.0033 12.4213 20.84 12.3447 20.6667 12.3447C20.4933 12.3447 20.33 12.4213 20.0017 12.5713L19.705 12.708C18.5533 13.238 17.9767 13.5047 17.5933 13.213C17.21 12.923 17.275 12.268 17.4017 10.9597L17.435 10.6213C17.47 10.2497 17.4883 10.0647 17.435 9.89134C17.3817 9.71967 17.2617 9.57967 17.0233 9.30134L16.8067 9.04801C15.9683 8.06801 15.5483 7.57801 15.695 7.10634C15.8417 6.63634 16.4567 6.49801 17.6867 6.21967L18.0033 6.14634C18.3533 6.06801 18.5283 6.02967 18.67 5.92134C18.81 5.81467 18.9 5.65467 19.08 5.33134L19.2433 5.03801ZM22.3333 16.6663H19C16.6433 16.6663 15.465 16.6663 14.7333 17.3997C14 18.1297 14 19.308 14 21.6663V36.6663H27.3333V21.6663C27.3333 19.3097 27.3333 18.1313 26.6 17.3997C25.87 16.6663 24.6917 16.6663 22.3333 16.6663Z" fill="#2495FB"/>
<path d="M13.2667 32.4003C12.5367 31.667 11.3583 31.667 9 31.667C6.64333 31.667 5.465 31.667 4.73333 32.4003C4 33.1303 4 34.3087 4 36.667H14C14 34.3103 14 33.132 13.2667 32.4003ZM27.3333 31.667V36.667H37.3333V31.667C37.3333 29.3103 37.3333 28.132 36.6 27.4003C35.87 26.667 34.6917 26.667 32.3333 26.667C29.9767 26.667 28.7983 26.667 28.0667 27.4003C27.3333 28.1303 27.3333 29.3087 27.3333 31.667Z" fill="#2495FB"/>
</svg>
