<svg width="40" height="40" viewBox="0 0 40 40" fill="none" xmlns="http://www.w3.org/2000/svg">
<path d="M29.5617 24.3702L25.5184 28.0868C23.4391 29.8994 20.9961 31.2463 18.3534 32.0368L19.4267 37.0435C19.4816 37.299 19.5958 37.538 19.76 37.7412C19.9243 37.9444 20.134 38.1062 20.3723 38.2134C20.6106 38.3206 20.8708 38.3703 21.1318 38.3585C21.3929 38.3466 21.6475 38.2736 21.8751 38.1452L28.3834 34.4752C29.2996 33.9186 30.0153 33.0853 30.4272 32.0955C30.8391 31.1058 30.9259 30.0108 30.6751 28.9685L29.5617 24.3702ZM12.1101 14.6268L15.5901 10.4935L11.2501 9.44684C10.1947 9.07859 9.04163 9.10475 8.004 9.52047C6.96637 9.9362 6.11425 10.7134 5.60507 11.7085L1.9384 18.2085C1.81002 18.4361 1.73696 18.6907 1.7251 18.9517C1.71325 19.2128 1.76294 19.4729 1.87017 19.7112C1.97739 19.9495 2.13914 20.1593 2.34237 20.3235C2.54559 20.4878 2.78459 20.602 3.04007 20.6568L8.16173 21.7552C9.01092 19.1489 10.3511 16.7292 12.1101 14.6268ZM27.8901 14.6935C28.3845 14.6935 28.8679 14.5469 29.279 14.2722C29.6901 13.9975 30.0105 13.607 30.1998 13.1502C30.389 12.6934 30.4385 12.1907 30.342 11.7058C30.2456 11.2208 30.0075 10.7754 29.6578 10.4257C29.3082 10.0761 28.8627 9.83801 28.3778 9.74154C27.8928 9.64508 27.3902 9.69459 26.9334 9.88381C26.4765 10.073 26.0861 10.3935 25.8114 10.8046C25.5367 11.2157 25.3901 11.6991 25.3901 12.1935C25.3901 12.8565 25.6535 13.4924 26.1223 13.9613C26.5911 14.4301 27.227 14.6935 27.8901 14.6935Z" fill="#2495FB"/>
<path opacity="0.5" d="M37.6683 3.43648C37.5932 3.15089 37.4436 2.89037 37.2349 2.68157C37.0261 2.47277 36.7655 2.32319 36.4799 2.24814C33.0613 1.35978 29.4611 1.45525 26.0943 2.52356C22.7275 3.59186 19.731 5.58955 17.4499 8.28648L12.1099 14.6265C9.44276 17.8074 7.75057 21.6906 7.23661 25.8098C7.20334 26.0631 7.22872 26.3206 7.31079 26.5624C7.39286 26.8043 7.52943 27.0241 7.70995 27.2048L12.8766 32.3715C13.0315 32.5265 13.2155 32.6494 13.418 32.7331C13.6205 32.8169 13.8375 32.86 14.0566 32.8598C14.1045 32.86 14.1523 32.8578 14.1999 32.8531C18.3829 32.5074 22.3469 30.8378 25.5166 28.0865L31.6233 22.4731C34.3295 20.1977 36.3342 17.2007 37.404 13.8307C38.4738 10.4607 38.5666 6.85621 37.6683 3.43648ZM27.8899 14.6931C27.3955 14.6931 26.9121 14.5465 26.501 14.2718C26.0899 13.9971 25.7695 13.6067 25.5802 13.1499C25.391 12.693 25.3415 12.1904 25.438 11.7054C25.5344 11.2205 25.7725 10.775 26.1222 10.4254C26.4718 10.0757 26.9173 9.83764 27.4022 9.74118C27.8872 9.64472 28.3898 9.69423 28.8467 9.88345C29.3035 10.0727 29.6939 10.3931 29.9686 10.8042C30.2433 11.2153 30.3899 11.6987 30.3899 12.1931C30.3899 12.8562 30.1266 13.4921 29.6577 13.9609C29.1889 14.4298 28.553 14.6931 27.8899 14.6931Z" fill="#A0D2FF"/>
</svg>
